<?xml version="1.0" standalone="no"?>
<!DOCTYPE svg PUBLIC "-//W3C//DTD SVG 20010904//EN"
 "http://www.w3.org/TR/2001/REC-SVG-20010904/DTD/svg10.dtd">
<svg version="1.0" xmlns="http://www.w3.org/2000/svg"
 width="256.000000pt" height="256.000000pt" viewBox="0 0 256.000000 256.000000"
 preserveAspectRatio="xMidYMid meet">

<g transform="translate(0.000000,256.000000) scale(0.100000,-0.100000)"
fill="#000000" stroke="none">
<path d="M558 2540 c-251 -43 -433 -195 -468 -391 -5 -30 -14 -304 -19 -609
-6 -305 -13 -609 -16 -675 -10 -209 16 -305 116 -424 51 -62 146 -129 212
-150 55 -18 56 -7 2 14 -60 22 -53 29 10 10 68 -21 71 -19 32 18 -19 17 -36
37 -38 43 -2 5 -30 30 -62 53 -68 52 -114 112 -153 201 l-29 65 -5 412 c-3
226 -8 414 -11 418 -7 6 -16 -93 -29 -320 -5 -74 -6 86 -3 375 2 278 9 528 14
555 24 127 113 234 257 308 168 87 119 82 882 80 706 -2 735 -4 859 -47 51
-19 54 -19 46 -6 -10 16 4 12 68 -22 83 -45 167 -125 205 -196 39 -73 49 -140
57 -402 3 -107 13 -366 21 -575 9 -209 14 -445 12 -525 -3 -142 -4 -147 -36
-213 -52 -106 -134 -186 -245 -241 -159 -78 -147 -77 -997 -74 l-745 3 -70 23
c-128 43 -228 109 -296 195 -22 27 -39 45 -39 41 0 -18 86 -116 133 -152 70
-53 119 -77 223 -107 l88 -26 741 -1 740 -2 95 23 c98 24 185 62 236 103 54
44 68 53 61 41 -13 -21 -131 -105 -191 -135 -121 -61 -93 -59 -671 -56 -291 2
-619 2 -728 1 l-197 -1 -51 -41 c-78 -62 -146 -66 -243 -16 -31 16 -52 22 -56
16 -3 -7 -21 -1 -45 15 l-40 25 35 -30 c19 -17 39 -30 45 -29 5 1 33 -9 60
-21 177 -81 234 -86 845 -85 894 2 911 3 988 44 20 11 45 20 54 20 61 0 186
96 217 166 11 24 35 67 54 96 35 54 57 116 37 103 -14 -9 -13 9 10 100 27 105
34 266 20 445 -7 80 -12 194 -11 253 1 60 -3 106 -7 103 -4 -3 -16 172 -25
389 -14 345 -19 401 -37 455 -62 183 -219 307 -448 355 -62 13 -180 15 -745
14 -370 -1 -693 -5 -719 -9z m-471 -1602 c-2 -24 -4 -7 -4 37 0 44 2 63 4 43
2 -21 2 -57 0 -80z"/>
<path d="M1860 2471 c-21 -7 -17 -9 27 -15 62 -9 110 -39 138 -84 11 -18 35
-52 54 -75 57 -71 140 -252 151 -332 16 -115 30 -633 27 -1050 -2 -370 -3
-392 -22 -420 l-20 -30 35 26 c19 14 50 45 68 68 24 32 32 38 32 23 0 -38 -86
-135 -160 -178 -17 -10 -33 -30 -37 -44 -3 -14 -13 -31 -22 -39 -14 -11 -11
-12 24 -7 l40 6 -27 -15 c-39 -22 -35 -26 11 -10 65 22 102 45 152 92 61 57
102 121 129 203 21 62 22 77 17 355 -5 316 -23 648 -37 680 -5 11 -16 112 -25
225 -9 113 -20 234 -26 270 -21 135 -104 245 -231 305 -104 49 -223 68 -298
46z m477 -260 c52 -86 58 -146 44 -477 -6 -159 -11 -381 -11 -493 0 -112 -2
-202 -5 -200 -12 12 -57 998 -48 1056 8 48 -15 127 -50 175 l-31 43 35 -26
c19 -14 48 -49 66 -78z"/>
<path d="M61 2193 c-6 -21 -11 -49 -10 -63 0 -14 7 2 14 35 14 68 12 87 -4 28z"/>
<path d="M854 2194 c-18 -14 -18 -15 4 -4 12 6 22 13 22 15 0 8 -5 6 -26 -11z"/>
<path d="M1158 2180 c-169 -30 -294 -108 -342 -210 -20 -44 -21 -59 -24 -633
-2 -516 -1 -590 13 -609 14 -20 15 14 15 367 1 396 11 640 28 657 14 14 22
-221 22 -654 0 -252 4 -388 10 -388 7 0 10 203 11 585 1 322 2 588 3 593 17
74 90 157 169 191 224 96 510 17 611 -169 49 -90 53 -278 8 -380 -43 -97 -134
-170 -257 -205 -96 -28 -256 -19 -357 20 -16 6 -17 -17 -20 -323 l-3 -331 -30
-31 c-45 -48 -96 -70 -160 -70 -66 0 -108 16 -161 61 -37 32 -35 26 10 -31 11
-14 -2 -4 -27 22 -26 26 -47 41 -47 35 0 -7 -6 -3 -13 8 -9 15 -13 169 -17
600 l-5 580 -3 -573 -2 -574 31 -71 c28 -63 52 -161 35 -146 -3 3 -20 30 -37
60 -17 30 -28 43 -25 29 3 -14 11 -68 16 -119 10 -96 18 -110 55 -111 11 0 27
-5 35 -10 12 -7 8 -11 -17 -16 -26 -5 -33 -11 -33 -31 0 -13 7 -26 15 -29 12
-5 13 -10 4 -20 -10 -12 23 -14 212 -14 l224 0 3 44 c2 40 0 44 -23 50 -28 7
-25 26 4 26 13 0 21 10 25 33 8 46 10 206 2 214 -3 3 -6 -3 -6 -15 0 -11 -4
-23 -9 -26 -11 -7 25 164 39 178 6 6 86 13 198 17 124 5 207 13 247 24 210 57
365 201 404 375 6 25 10 169 10 319 0 292 -9 364 -59 460 -23 47 -26 49 -26
22 0 -11 5 -17 10 -14 5 4 7 -1 3 -9 -3 -9 1 -37 9 -63 25 -83 29 -222 9 -311
-25 -113 -59 -180 -129 -250 -68 -67 -156 -120 -261 -155 -64 -22 -87 -24
-262 -24 -105 0 -193 2 -196 5 -3 3 -7 33 -9 68 -4 51 -2 62 11 62 14 0 14 -1
1 -10 -26 -17 316 -12 383 5 94 24 226 102 212 125 -3 4 5 29 16 55 30 68 38
245 15 348 -21 93 -17 114 13 67 35 -57 46 -109 45 -215 -2 -106 -16 -161 -56
-218 -17 -24 -18 -28 -4 -18 10 8 30 38 44 65 26 49 27 57 26 201 0 147 -1
151 -34 230 -18 44 -43 93 -54 108 -32 44 -144 113 -230 142 -86 29 -235 41
-318 25z m792 -285 c0 -5 -5 -3 -10 5 -5 8 -10 20 -10 25 0 6 5 3 10 -5 5 -8
10 -19 10 -25z m17 -67 c-3 -8 -6 -5 -6 6 -1 11 2 17 5 13 3 -3 4 -12 1 -19z
m10 -60 c-3 -7 -5 -2 -5 12 0 14 2 19 5 13 2 -7 2 -19 0 -25z m-207 -593 c0
-17 -33 -66 -56 -84 -31 -24 -59 -26 -93 -7 -24 13 -22 14 55 54 79 41 94 47
94 37z m-305 -75 c17 -3 -37 -5 -120 -3 -82 3 -154 6 -160 8 -20 7 251 2 280
-5z m-122 -17 c-29 -2 -77 -2 -105 0 -29 2 -6 3 52 3 58 0 81 -1 53 -3z m387
-103 c-14 -27 -42 -40 -70 -33 -21 6 -19 8 21 29 55 29 63 29 49 4z m-422 -77
c-10 -2 -26 -2 -35 0 -10 3 -2 5 17 5 19 0 27 -2 18 -5z m-637 -288 c7 -13 1
-10 -15 8 -14 15 -26 33 -26 40 1 13 26 -16 41 -48z m242 -52 c-7 -2 -19 -2
-25 0 -7 3 -2 5 12 5 14 0 19 -2 13 -5z m-43 -13 c11 -7 4 -10 -25 -9 -31 0
-36 2 -20 9 26 11 28 11 45 0z m60 -39 c0 -18 -24 -51 -37 -51 -12 0 -43 33
-43 46 0 13 19 21 58 23 15 1 22 -5 22 -18z m-12 -147 c26 -7 28 -17 6 -38
-21 -22 -57 -20 -79 4 -17 19 -17 20 6 29 29 12 38 12 67 5z"/>
<path d="M755 2118 c-68 -63 -116 -122 -93 -113 7 3 24 21 37 41 14 20 50 58
80 85 30 27 52 49 48 49 -3 0 -36 -28 -72 -62z"/>
<path d="M44 1915 c0 -104 2 -146 3 -92 2 54 2 139 0 190 -1 51 -3 7 -3 -98z"/>
<path d="M1143 2089 c-43 -13 -34 -33 23 -49 24 -7 44 -16 44 -20 0 -10 147
-21 250 -20 41 1 89 -3 105 -9 l30 -11 -34 30 c-41 35 -104 66 -163 80 -53 12
-212 11 -255 -1z"/>
<path d="M2502 2080 c0 -14 2 -19 5 -12 2 6 2 18 0 25 -3 6 -5 1 -5 -13z"/>
<path d="M1162 1987 c-53 -20 -100 -64 -111 -105 -12 -39 -15 -369 -5 -396 3
-9 17 -16 30 -16 21 0 24 5 24 33 0 86 161 140 275 93 43 -18 105 -72 105 -92
0 -6 -10 -19 -22 -28 -21 -15 -21 -16 -2 -7 34 16 82 77 93 118 14 48 14 148
1 192 -15 52 -57 107 -108 141 -25 16 -42 30 -38 30 16 0 53 -24 90 -59 26
-24 35 -29 27 -14 -19 37 -93 93 -145 108 -59 18 -168 18 -214 2z m195 -23
c-3 -3 -12 -4 -19 -1 -8 3 -5 6 6 6 11 1 17 -2 13 -5z m-59 -11 c-16 -2 -40
-2 -55 0 -16 2 -3 4 27 4 30 0 43 -2 28 -4z m-91 -9 c-3 -3 -12 -4 -19 -1 -8
3 -5 6 6 6 11 1 17 -2 13 -5z m83 -24 c0 -5 -11 -10 -25 -10 -14 0 -25 5 -25
10 0 6 11 10 25 10 14 0 25 -4 25 -10z m-2 -157 c-10 -2 -26 -2 -35 0 -10 3
-2 5 17 5 19 0 27 -2 18 -5z"/>
<path d="M636 1919 c-7 -49 -14 -820 -7 -813 5 5 19 833 14 843 -1 1 -4 -12
-7 -30z"/>
<path d="M2513 1870 c0 -41 2 -58 4 -37 2 20 2 54 0 75 -2 20 -4 3 -4 -38z"/>
<path d="M601 1884 c0 -11 3 -14 6 -6 3 7 2 16 -1 19 -3 4 -6 -2 -5 -13z"/>
<path d="M34 1505 c0 -104 2 -146 3 -92 2 54 2 139 0 190 -1 51 -3 7 -3 -98z"/>
<path d="M624 950 c0 -52 1 -74 3 -47 2 26 2 68 0 95 -2 26 -3 4 -3 -48z"/>
<path d="M23 930 c0 -36 2 -50 4 -32 2 17 2 47 0 65 -2 17 -4 3 -4 -33z"/>
<path d="M181 695 c-1 -39 19 -91 49 -125 l30 -35 -26 48 c-15 27 -32 67 -40
90 -7 23 -13 33 -13 22z"/>
</g>
</svg>
