<?xml version="1.0" standalone="no"?><!DOCTYPE svg PUBLIC "-//W3C//DTD SVG 1.1//EN" "http://www.w3.org/Graphics/SVG/1.1/DTD/svg11.dtd"><svg t="1696598398041" class="icon" viewBox="0 0 1024 1024" version="1.1" xmlns="http://www.w3.org/2000/svg" p-id="1443" xmlns:xlink="http://www.w3.org/1999/xlink" width="16" height="16"><path d="M679.36 77.08H197.17c-44.56 0-80.68 36.12-80.68 80.68v566.79c0 44.54 36.12 80.66 80.68 80.66h482.19c44.56 0 80.68-36.12 80.68-80.66V157.76c0-44.56-36.12-80.68-80.68-80.68" fill="#C3F6E2" p-id="1444"></path><path d="M679.36 790.13H559.17c-8.33 0-15.08 6.76-15.08 15.08 0 8.33 6.76 15.08 15.08 15.08h121.12c8.33 0 14.63-6.76 14.63-15.08-0.01-8.32-7.23-15.08-15.56-15.08zM479.04 790.13h-120.2c-8.33 0-15.08 6.76-15.08 15.08 0 8.33 6.76 15.08 15.08 15.08h120.19c8.33 0 15.08-6.76 15.08-15.08 0.01-8.32-6.75-15.08-15.07-15.08zM278.73 790.13h-81.56c-10.68 0-20.86-2.47-30.21-7.35-7.36-3.87-16.5-0.98-20.35 6.4-3.85 7.38-0.98 16.5 6.4 20.35 13.51 7.05 28.77 10.76 44.15 10.76h81.56c8.33 0 15.08-6.76 15.08-15.08 0.02-8.32-6.74-15.08-15.07-15.08zM760.04 635c-8.33 0-15.08 6.76-15.08 15.08v74.47c0 12.53-3.54 24.69-10.23 35.15-4.5 7.03-2.44 16.36 4.6 20.84a14.95 14.95 0 0 0 8.09 2.38c4.99 0 9.86-2.45 12.73-6.95 9.8-15.36 14.98-33.13 14.98-51.42v-74.47c-0.01-8.32-6.77-15.08-15.09-15.08zM131.58 724.56v-112.2c0-8.33-6.76-15.08-15.08-15.08-8.33 0-15.08 6.76-15.08 15.08v112.32c0.02 3.12 0.18 6.25 0.49 9.31 0.75 7.8 7.31 13.63 14.98 13.63 0.49 0 0.98-0.02 1.47-0.08 8.29-0.81 14.36-8.17 13.55-16.46-0.2-2.2-0.31-4.42-0.33-6.52zM760.04 434.68c-8.33 0-15.08 6.76-15.08 15.08v120.19c0 8.33 6.76 15.08 15.08 15.08 8.33 0 15.08-6.76 15.08-15.08V449.76c0-8.33-6.76-15.08-15.08-15.08zM116.49 547.31c8.33 0 15.08-6.76 15.08-15.08V412.05c0-8.33-6.76-15.08-15.08-15.08-8.33 0-15.08 6.76-15.08 15.08v120.17c0 8.33 6.76 15.09 15.08 15.09zM760.04 234.36c-8.33 0-15.08 6.76-15.08 15.08v120.19c0 8.33 6.76 15.08 15.08 15.08 8.33 0 15.08-6.76 15.08-15.08V249.44c0-8.33-6.76-15.08-15.08-15.08zM116.49 347.01c8.33 0 15.08-6.76 15.08-15.08v-120.2c0-8.33-6.76-15.08-15.08-15.08-8.33 0-15.08 6.76-15.08 15.08v120.19c0 8.33 6.76 15.09 15.08 15.09zM700.69 64.38c-7.95-1.83-16.18 3.22-18.05 11.37-1.85 8.11 3.24 16.2 11.37 18.05 29.99 6.81 50.94 33.13 50.94 63.97v11.55c0 8.33 6.76 15.08 15.08 15.08 8.33 0 15.08-6.76 15.08-15.08v-11.55c0.01-45.02-30.59-83.42-74.42-93.39zM197.17 92.17h19.58c8.33 0 15.08-6.76 15.08-15.08 0-8.33-6.76-15.08-15.08-15.08h-19.58c-41.22 0-77.71 26.22-90.81 65.26-2.65 7.9 1.61 16.44 9.51 19.09 1.59 0.53 3.2 0.79 4.79 0.79 6.3 0 12.18-3.99 14.3-10.29 8.97-26.74 33.97-44.69 62.21-44.69zM632.46 77.08c0-8.33-6.76-15.08-15.08-15.08h-120.2c-8.33 0-15.08 6.76-15.08 15.08 0 8.33 6.76 15.08 15.08 15.08h120.19c8.33 0.01 15.09-6.75 15.09-15.08zM432.14 77.08c0-8.33-6.76-15.08-15.08-15.08H296.88c-8.33 0-15.08 6.76-15.08 15.08 0 8.33 6.76 15.08 15.08 15.08h120.17c8.33 0.01 15.09-6.75 15.09-15.08z" fill="#12926E" p-id="1445"></path><path d="M922.59 314.43v490.7L772.16 962H359.49c-44.65 0-80.44-36.21-80.44-80.85V314.43c0-44.65 35.8-80.44 80.44-80.44h482.26c44.64 0 80.84 35.79 80.84 80.44z" fill="#39E2A0" p-id="1446"></path><path d="M922.59 805.13L772.16 962V857.12c0-28.71 23.28-51.99 51.99-51.99h98.44z" fill="#11BB82" p-id="1447"></path></svg>