<?xml version="1.0" standalone="no"?><!DOCTYPE svg PUBLIC "-//W3C//DTD SVG 1.1//EN" "http://www.w3.org/Graphics/SVG/1.1/DTD/svg11.dtd"><svg t="1699187411059" class="icon" viewBox="0 0 1024 1024" version="1.1" xmlns="http://www.w3.org/2000/svg" p-id="1706" xmlns:xlink="http://www.w3.org/1999/xlink" width="128" height="128"><path d="M938.666667 746.666667v42.666666a21.333333 21.333333 0 0 1-21.333334 21.333334h-213.333333a85.333333 85.333333 0 0 1-71.253333-37.973334L318.293333 298.666667h-213.333333A21.333333 21.333333 0 0 1 85.333333 277.333333v-42.666666a21.333333 21.333333 0 0 1 21.333334-21.333334h213.333333a85.333333 85.333333 0 0 1 71.253333 37.973334L705.706667 725.333333h213.333333a21.333333 21.333333 0 0 1 19.626667 21.333334zM917.333333 213.333333h-213.333333a21.333333 21.333333 0 0 0-21.333333 21.333334v42.666666a21.333333 21.333333 0 0 0 21.333333 21.333334h213.333333a21.333333 21.333333 0 0 0 21.333334-21.333334v-42.666666a21.333333 21.333333 0 0 0-21.333334-21.333334z" p-id="1707"></path></svg>