<?xml version="1.0" standalone="no"?><!DOCTYPE svg PUBLIC "-//W3C//DTD SVG 1.1//EN" "http://www.w3.org/Graphics/SVG/1.1/DTD/svg11.dtd"><svg t="1699187400401" class="icon" viewBox="0 0 1024 1024" version="1.1" xmlns="http://www.w3.org/2000/svg" p-id="1400" xmlns:xlink="http://www.w3.org/1999/xlink" width="128" height="128"><path d="M790.767 611.147H680.05V422.149h110.717c96.34 0 174.718-78.377 174.718-174.717S887.106 71.496 790.767 71.496c-96.339 0-174.717 79.597-174.717 175.936v110.717H414.077V240.945c0-96.339-78.378-174.717-174.717-174.717S64.642 144.605 64.642 240.945s78.378 174.717 174.717 174.717h117.205v201.973H239.359c-96.339 0-174.717 78.378-174.717 174.718 0 96.339 78.378 174.717 174.717 174.717s174.717-78.378 174.717-174.717V681.635H616.05v104.23c0 96.339 78.378 174.717 174.717 174.717 96.34 0 174.718-78.378 174.718-174.717-0.001-96.34-78.379-174.718-174.718-174.718zM680.05 247.432c0-61.05 49.667-111.936 110.717-111.936s110.718 50.886 110.718 111.936c0 61.049-49.668 110.717-110.718 110.717H680.05V247.432z m-329.973 104.23H239.359c-61.05 0-110.717-49.667-110.717-110.717s49.667-110.717 110.717-110.717 110.717 49.667 110.717 110.717v110.717z m0 440.691c0 61.05-49.667 110.717-110.717 110.717s-110.717-49.667-110.717-110.717S178.31 681.635 239.36 681.635h110.717v110.718zM616.05 611.147v6.487H420.564V422.149H616.05v188.998z m174.717 285.435c-61.05 0-110.717-49.667-110.717-110.717V675.148h110.717c61.05 0 110.718 49.668 110.718 110.718s-49.669 110.716-110.718 110.716z" p-id="1401"></path></svg>