<?xml version="1.0" standalone="no"?><!DOCTYPE svg PUBLIC "-//W3C//DTD SVG 1.1//EN" "http://www.w3.org/Graphics/SVG/1.1/DTD/svg11.dtd"><svg t="1698805337881" class="icon" viewBox="0 0 1024 1024" version="1.1" xmlns="http://www.w3.org/2000/svg" p-id="3483" xmlns:xlink="http://www.w3.org/1999/xlink" width="128" height="128"><path d="M512 699.733333a187.733333 187.733333 0 1 1 0-375.466666 187.733333 187.733333 0 0 1 0 375.466666z m0 25.6a213.333333 213.333333 0 1 0 0-426.666666 213.333333 213.333333 0 0 0 0 426.666666z"  p-id="3484"></path><path d="M94.421333 599.893333a424.32 424.32 0 0 1 0-175.786666c47.36 5.546667 88.746667-10.112 102.229334-42.709334 13.525333-32.64-4.608-72.96-42.069334-102.528a424.32 424.32 0 0 1 124.288-124.288c29.525333 37.418667 69.888 55.594667 102.528 42.069334 32.64-13.525333 48.298667-54.869333 42.666667-102.229334a424.32 424.32 0 0 1 175.786667 0c-5.546667 47.36 10.154667 88.746667 42.752 102.229334 32.64 13.525333 72.96-4.608 102.528-42.069334a424.277333 424.277333 0 0 1 124.288 124.288c-37.418667 29.525333-55.594667 69.888-42.069334 102.528 13.525333 32.64 54.869333 48.298667 102.229334 42.666667a424.32 424.32 0 0 1 0 175.786667c-47.36-5.546667-88.746667 10.154667-102.229334 42.752-13.525333 32.64 4.608 72.96 42.069334 102.528a424.32 424.32 0 0 1-124.288 124.288c-29.525333-37.418667-69.888-55.594667-102.528-42.069334-32.64 13.525333-48.298667 54.869333-42.709334 102.229334a424.32 424.32 0 0 1-175.786666 0c5.546667-47.36-10.112-88.746667-42.709334-102.229334-32.64-13.525333-72.96 4.608-102.528 42.069334a424.362667 424.362667 0 0 1-124.288-124.288c37.418667-29.525333 55.594667-69.888 42.069334-102.528-13.525333-32.64-54.869333-48.298667-102.229334-42.709334zM149.333333 521.045333c46.933333 13.013333 87.168 50.773333 106.368 96.981334 19.2 46.293333 17.493333 101.888-6.442666 144.213333 4.096 4.352 8.405333 8.490667 12.757333 12.586667 42.368-23.978667 97.493333-25.770667 143.786667-6.656 46.250667 19.2 84.138667 59.52 97.152 106.453333 5.973333 0.170667 11.946667 0.213333 17.92 0 13.013333-46.933333 50.858667-87.168 97.109333-106.368 46.293333-19.2 101.802667-17.493333 144.128 6.485333 4.352-4.096 8.533333-8.362667 12.629333-12.714666-23.978667-42.368-25.642667-97.664-6.528-143.957334 19.2-46.250667 59.52-84.224 106.453334-97.237333 0.170667-5.973333 0.085333-11.946667-0.085334-17.92-46.933333-13.013333-87.210667-50.901333-106.453333-97.152-19.157333-46.293333-17.365333-101.546667 6.613333-143.872a339.584 339.584 0 0 0-12.672-12.672c-42.368 23.978667-97.706667 25.6-144.042666 6.528-46.250667-19.2-84.096-59.477333-97.109334-106.410667a339.072 339.072 0 0 0-17.92 0c-13.013333 46.933333-50.773333 87.168-97.024 106.368-46.293333 19.2-101.76 17.493333-144.085333-6.485333a295.765333 295.765333 0 0 0-12.714667 12.629333c23.978667 42.368 25.728 97.578667 6.613334 143.872-19.2 46.250667-59.605333 84.394667-106.538667 97.408-0.170667 5.973333-0.085333 11.946667 0.085333 17.92z"  p-id="3485"></path><path d="M411.306667 386.986667a51.84 51.84 0 0 1 63.018666 73.514666l148.096 148.096a14.805333 14.805333 0 0 1-20.906666 20.906667l-148.138667-148.053333a51.882667 51.882667 0 0 1-73.472-63.018667l33.109333 33.109333a22.229333 22.229333 0 1 0 31.402667-31.402666L411.306667 386.986667z m153.514666 27.904l47.146667-26.154667 20.906667 20.906667-26.154667 47.146666-26.197333 5.248-20.906667 20.906667a14.805333 14.805333 0 0 1-20.906667-20.906667l20.906667-20.949333 5.205333-26.197333z m-109.952 130.901333a14.805333 14.805333 0 0 1 20.906667 20.906667l-68.010667 68.053333a14.805333 14.805333 0 0 1-22.101333-19.626667l1.152-1.28 68.053333-68.053333z"  p-id="3486"></path></svg>
