<?xml version="1.0" standalone="no"?><!DOCTYPE svg PUBLIC "-//W3C//DTD SVG 1.1//EN" "http://www.w3.org/Graphics/SVG/1.1/DTD/svg11.dtd"><svg t="1698805368358" class="icon" viewBox="0 0 1024 1024" version="1.1" xmlns="http://www.w3.org/2000/svg" p-id="4105" xmlns:xlink="http://www.w3.org/1999/xlink" width="128" height="128"><path d="M217.144889 73.159111c0-10.097778 8.192-18.289778 18.289778-18.289778h553.130666c10.097778 0 18.289778 8.192 18.289778 18.289778v27.420445c0 20.195556-16.384 36.579556-36.579555 36.579555h-37.432889v268.686222l241.408 410.624c39.395556 67.043556-8.931556 151.523556-86.698667 151.523556H139.662222c-77.681778 0-126.037333-84.337778-86.755555-151.381333l240.497777-410.737778V137.187556H253.724444c-20.195556 0-36.579556-16.384-36.579555-36.579556v-27.420444z m670.407111 803.413333c7.054222 0 11.463111-7.68 7.879111-13.767111l-114.830222-195.299555c-38.542222-23.210667-87.665778-30.008889-131.697778-30.008889-36.835556 0-63.402667 18.688-103.281778 46.961778-37.944889 26.908444-86.243556 60.700444-156.728889 60.700444-57.486222 0-115.370667-9.187556-164.295111-40.760889l-92.785777 158.435556a9.130667 9.130667 0 0 0 7.879111 13.738666h747.861333z m-238.648889-313.144888c28.017778 0 52.878222 2.645333 74.439111 6.656l-70.570666-120.035556c-7.452444-12.657778-11.377778-27.022222-11.377778-41.699556V137.130667h-256.512v271.217777c0 14.620444-3.896889 28.956444-11.292445 41.585778L262.115556 640.284444c37.376 25.201778 82.488889 30.776889 126.776888 30.776889 46.023111 0 83.143111-25.201778 119.182223-50.915555 35.128889-25.031111 79.559111-56.718222 140.8-56.718222z m-92.330667-70.826667a44.572444 44.572444 0 1 0 0-89.173333 44.572444 44.572444 0 0 0 0 89.144888z"  p-id="4106"></path></svg>
