<?xml version="1.0" standalone="no"?><!DOCTYPE svg PUBLIC "-//W3C//DTD SVG 1.1//EN" "http://www.w3.org/Graphics/SVG/1.1/DTD/svg11.dtd"><svg t="1699187416897" class="icon" viewBox="0 0 1024 1024" version="1.1" xmlns="http://www.w3.org/2000/svg" p-id="1859" xmlns:xlink="http://www.w3.org/1999/xlink" width="128" height="128"><path d="M379.794286 909.714286h264.411428c60.013714 0 92.16-35.145143 92.16-91.721143v-192h174.427429c34.706286 0 62.134857-21.430857 62.134857-53.997714 0-20.132571-9.874286-35.145143-25.709714-50.56L564.937143 140.434286c-16.292571-16.713143-33.865143-26.148571-52.717714-26.148572-19.291429 0-36.425143 9.435429-53.156572 26.148572L76.8 521.435429c-16.274286 16.274286-25.709714 30.427429-25.709714 50.56 0 32.585143 27.428571 53.997714 62.573714 53.997714h173.988571v192c0 56.576 32.146286 91.721143 92.16 91.721143z m6.857143-66.432c-16.292571 0-27.428571-11.154286-27.428572-26.989715V575.853714c0-10.715429-3.858286-14.573714-14.153143-14.573714H147.510857c-3.017143 0-4.717714-1.28-4.717714-3.419429 0-1.718857 0.420571-2.998857 2.56-5.138285l357.851428-355.712a11.154286 11.154286 0 0 1 9.014858-4.297143c2.998857 0 5.577143 0.859429 8.996571 4.297143l357.851429 355.712c1.718857 2.139429 2.578286 3.419429 2.578285 5.12 0 2.157714-1.718857 3.437714-4.717714 3.437714H678.948571c-10.294857 0-14.134857 3.858286-14.134857 14.573714v240.438857c0 15.414857-11.574857 26.989714-27.428571 26.989715z" p-id="1860"></path></svg>