<?xml version="1.0" standalone="no"?><!DOCTYPE svg PUBLIC "-//W3C//DTD SVG 1.1//EN" "http://www.w3.org/Graphics/SVG/1.1/DTD/svg11.dtd"><svg t="1698805355288" class="icon" viewBox="0 0 1024 1024" version="1.1" xmlns="http://www.w3.org/2000/svg" p-id="3772" xmlns:xlink="http://www.w3.org/1999/xlink" width="128" height="128"><path d="M806.600348 22.661565a195.717565 195.717565 0 0 1 9.794782 391.212522l-9.794782 0.26713h-97.947826v195.717566h97.947826a195.717565 195.717565 0 1 1-195.762087 195.762087v-97.903305H415.076174v97.947826a195.717565 195.717565 0 0 1-185.967304 195.450435l-9.794783 0.222609a195.717565 195.717565 0 0 1-9.794783-391.212522l9.794783-0.26713h97.947826V414.141217h-97.947826a195.717565 195.717565 0 1 1 195.762087-195.762087v97.903305h195.762087v-97.947826a195.717565 195.717565 0 0 1 185.967304-195.450435l9.794783-0.222609zM317.217391 707.717565H219.314087l-7.301565 0.267131a97.858783 97.858783 0 0 0 0 195.272347l7.301565 0.222609 7.390609-0.222609 7.479652-0.890434a97.858783 97.858783 0 0 0 82.721391-88.687305l0.311652-8.102956v-97.858783z m489.293913 0h-97.814261v97.947826c0 48.261565 35.305739 89.399652 83.033044 96.656696l7.568696 0.890435 7.301565 0.26713a97.858783 97.858783 0 0 0 7.301565-195.450435l-7.301565-0.311652h-0.044522zM610.838261 414.141217H415.076174v195.717566h195.762087V414.141217zM219.314087 120.520348a97.858783 97.858783 0 0 0-7.301565 195.450435l7.301565 0.311652h97.947826v-97.947826c0-51.2-39.490783-93.718261-90.557217-97.591652l-7.390609-0.222609z m587.241739 0l-7.346087 0.222609-7.479652 0.890434a97.858783 97.858783 0 0 0-82.721391 88.687305l-0.311653 8.102956v97.858783h97.903305l7.301565-0.267131a97.858783 97.858783 0 0 0 0-195.272347l-7.301565-0.222609z" p-id="3773"></path></svg>
